<?xml version="1.0" encoding="UTF-8"?>
<svg xmlns="http://www.w3.org/2000/svg" id="Layer_1" data-name="Layer 1" viewBox="0 0 24 24">
  <path d="m9,15.5v2c0,.276-.224.5-.5.5s-.5-.224-.5-.5v-2c0-.276.224-.5.5-.5s.5.224.5.5Zm14.992-10.008c0,.276-.224.5-.5.5s-.5-.224-.5-.5c0-2.477-2.015-4.492-4.492-4.492s-4.5,2.016-4.5,4.492v3.765c1.746.619,3,2.287,3,4.243v6c0,2.481-2.019,4.5-4.5,4.5H4.5c-2.481,0-4.5-2.019-4.5-4.5v-6c0-2.481,2.019-4.5,4.5-4.5h8c.169,0,.336.01.5.028v-3.536c0-3.028,2.464-5.492,5.492-5.492s5.5,2.464,5.5,5.492Zm-11.492,4.508H4.5c-1.93,0-3.5,1.57-3.5,3.5v6c0,1.93,1.57,3.5,3.5,3.5h8c1.93,0,3.5-1.57,3.5-3.5v-6c0-1.93-1.57-3.5-3.5-3.5Z"/>
</svg>
