<?xml version="1.0" encoding="UTF-8"?>
<svg xmlns="http://www.w3.org/2000/svg" id="Layer_1" data-name="Layer 1" viewBox="0 0 24 24">
  <path d="M17.5,11c-3.584,0-6.5,2.916-6.5,6.5s2.916,6.5,6.5,6.5,6.5-2.916,6.5-6.5-2.916-6.5-6.5-6.5Zm0,12c-3.033,0-5.5-2.467-5.5-5.5s2.467-5.5,5.5-5.5,5.5,2.467,5.5,5.5-2.467,5.5-5.5,5.5Zm1-8c0,.552-.448,1-1,1s-1-.448-1-1,.448-1,1-1,1,.448,1,1Zm-.5,2.5v3c0,.276-.224,.5-.5,.5s-.5-.224-.5-.5v-3c0-.276,.224-.5,.5-.5s.5,.224,.5,.5Zm-7,6c0,.276-.224,.5-.5,.5H4.5c-2.481,0-4.5-2.019-4.5-4.5V4.5C0,2.019,2.019,0,4.5,0H13.5c2.481,0,4.5,2.019,4.5,4.5v4c0,.276-.224,.5-.5,.5s-.5-.224-.5-.5V4.5c0-1.93-1.57-3.5-3.5-3.5H4.5c-1.93,0-3.5,1.57-3.5,3.5v15c0,1.93,1.57,3.5,3.5,3.5h6c.276,0,.5,.224,.5,.5ZM13.5,6H4.5c-.276,0-.5-.224-.5-.5s.224-.5,.5-.5H13.5c.276,0,.5,.224,.5,.5s-.224,.5-.5,.5Zm-2,5H4.5c-.276,0-.5-.224-.5-.5s.224-.5,.5-.5h7c.276,0,.5,.224,.5,.5s-.224,.5-.5,.5Zm-4,4c.276,0,.5,.224,.5,.5s-.224,.5-.5,.5h-3c-.276,0-.5-.224-.5-.5s.224-.5,.5-.5h3Z"/>
</svg>
