<?xml version="1.0" encoding="UTF-8"?>
<svg xmlns="http://www.w3.org/2000/svg" id="Layer_1" data-name="Layer 1" viewBox="0 0 24 24">
  <path d="m22,19.05V4.95c1.14-.232,2-1.242,2-2.45,0-1.379-1.121-2.5-2.5-2.5-1.208,0-2.218.86-2.45,2H4.95c-.232-1.14-1.242-2-2.45-2C1.121,0,0,1.121,0,2.5c0,1.208.86,2.218,2,2.45v14.1c-1.14.232-2,1.242-2,2.45,0,1.379,1.121,2.5,2.5,2.5,1.208,0,2.218-.86,2.45-2h14.1c.232,1.14,1.242,2,2.45,2,1.379,0,2.5-1.121,2.5-2.5,0-1.208-.86-2.218-2-2.45Zm-2.95,1.95H4.95c-.199-.978-.971-1.75-1.95-1.95V4.95c.978-.199,1.75-.971,1.95-1.95h14.1c.199.978.971,1.75,1.95,1.95v14.1c-.978.199-1.75.971-1.95,1.95ZM21.5,1c.827,0,1.5.673,1.5,1.5s-.673,1.5-1.5,1.5-1.5-.673-1.5-1.5.673-1.5,1.5-1.5ZM1,2.5c0-.827.673-1.5,1.5-1.5s1.5.673,1.5,1.5-.673,1.5-1.5,1.5-1.5-.673-1.5-1.5Zm1.5,20.5c-.827,0-1.5-.673-1.5-1.5s.673-1.5,1.5-1.5,1.5.673,1.5,1.5-.673,1.5-1.5,1.5Zm19,0c-.827,0-1.5-.673-1.5-1.5s.673-1.5,1.5-1.5,1.5.673,1.5,1.5-.673,1.5-1.5,1.5Zm-5.5-14.5c0,.276-.224.5-.5.5h-3v7.5c0,.276-.224.5-.5.5s-.5-.224-.5-.5v-7.5h-2.962c-.276,0-.5-.224-.5-.5s.224-.5.5-.5h6.962c.276,0,.5.224.5.5Z"/>
</svg>
